<?xml version="1.0" standalone="no"?>
<!DOCTYPE svg PUBLIC "-//W3C//DTD SVG 20010904//EN"
 "http://www.w3.org/TR/2001/REC-SVG-20010904/DTD/svg10.dtd">
<svg version="1.0" xmlns="http://www.w3.org/2000/svg"
 width="200.000000pt" height="200.000000pt" viewBox="0 0 200.000000 200.000000"
 preserveAspectRatio="xMidYMid meet">
<metadata>
Created by potrace 1.14, written by Peter Selinger 2001-2017
</metadata>
<g transform="translate(0.000000,200.000000) scale(0.100000,-0.100000)"
fill="#000000" stroke="none">
<path d="M970 1919 c0 -5 -5 -7 -12 -3 -6 4 -8 3 -4 -4 3 -6 2 -13 -4 -17 -5
-3 -10 -1 -10 5 0 6 -5 8 -10 5 -6 -4 -8 -10 -6 -14 3 -4 -1 -8 -9 -8 -8 0
-12 4 -9 9 3 4 -2 5 -10 2 -9 -3 -14 -11 -13 -17 1 -7 -9 -11 -26 -9 -17 2
-29 -2 -33 -12 -3 -9 -10 -16 -16 -16 -5 0 -6 6 -2 13 5 7 2 7 -10 -2 -9 -8
-22 -24 -27 -35 -8 -16 -6 -15 10 4 11 14 21 20 21 14 0 -6 -7 -17 -15 -24 -8
-7 -13 -16 -10 -20 2 -4 -7 -5 -21 -2 -14 2 -24 1 -23 -4 4 -23 -2 -35 -13
-28 -9 5 -9 2 1 -9 14 -18 26 -24 17 -8 -3 4 2 17 10 27 9 10 13 13 9 7 -3 -7
-8 -23 -10 -34 -5 -24 -15 -38 -15 -21 0 7 -7 12 -15 12 -8 0 -15 -5 -15 -11
0 -5 4 -8 9 -5 5 3 11 -1 14 -9 4 -9 1 -12 -7 -9 -18 7 -30 -12 -15 -22 8 -5
9 -3 4 6 -5 9 -4 11 4 6 15 -10 4 -27 -13 -20 -8 3 -17 0 -22 -7 -4 -8 -3 -10
4 -5 8 5 12 0 12 -13 0 -10 3 -26 6 -35 3 -9 1 -16 -6 -16 -6 0 -9 4 -5 9 3 5
0 13 -6 17 -7 4 -9 3 -6 -2 3 -6 2 -16 -3 -24 -5 -8 -5 -21 1 -31 7 -14 5 -17
-17 -14 -18 2 -24 -1 -20 -12 3 -8 1 -11 -4 -8 -6 3 -10 0 -10 -7 0 -10 -3 -9
-10 2 -7 12 -12 11 -31 -5 -12 -11 -19 -14 -15 -7 4 6 2 12 -3 12 -6 0 -11 -5
-11 -11 0 -5 -4 -7 -10 -4 -5 3 -10 2 -10 -3 0 -5 -8 -12 -17 -16 -10 -3 -25
-9 -33 -12 -8 -3 -7 0 3 6 9 6 17 16 17 21 0 6 -7 3 -16 -5 -8 -9 -19 -14 -24
-11 -5 3 -12 0 -16 -6 -4 -8 -3 -9 4 -5 7 4 12 2 12 -4 0 -6 -8 -10 -17 -9
-30 3 -34 0 -24 -20 12 -21 -10 -48 -28 -36 -7 3 -8 0 -5 -9 3 -9 10 -14 14
-11 11 7 6 -22 -5 -32 -4 -4 -5 -2 0 6 6 10 4 12 -5 6 -10 -6 -10 -11 3 -20 9
-7 14 -15 10 -18 -3 -4 -13 -1 -22 6 -14 10 -14 10 -3 -5 10 -13 10 -17 0 -20
-9 -3 -9 -6 0 -12 7 -4 12 -2 12 3 0 6 3 11 8 11 4 0 7 -11 7 -24 0 -17 -3
-22 -12 -15 -8 8 -10 4 -6 -13 4 -13 11 -27 17 -31 6 -5 1 -5 -11 -2 -14 4
-23 2 -23 -5 0 -6 4 -9 9 -5 6 3 15 -5 22 -17 12 -22 11 -22 -6 -8 -17 14 -17
13 -8 -5 6 -11 8 -26 6 -32 -3 -7 0 -13 6 -13 6 0 11 -5 11 -11 0 -5 -4 -8 -9
-4 -12 7 -8 -52 4 -62 4 -5 5 -1 0 7 -5 8 -4 12 0 7 11 -10 16 -39 6 -32 -4 2
-8 -2 -8 -9 0 -8 5 -12 12 -10 6 3 11 -6 11 -20 0 -14 -4 -22 -10 -19 -6 4 -8
3 -4 -2 4 -4 3 -13 -2 -20 -7 -8 -5 -12 5 -12 8 0 12 3 10 7 -2 4 3 7 11 7 10
0 11 -4 4 -11 -5 -5 -10 -18 -10 -27 0 -10 -6 -20 -12 -23 -7 -3 -4 -4 8 -1
14 4 21 0 21 -9 0 -9 -4 -13 -9 -10 -4 3 -8 0 -8 -5 0 -6 5 -11 11 -11 7 0 9
-10 7 -24 -4 -19 -1 -23 11 -18 14 5 14 4 1 -13 -8 -10 -10 -16 -4 -12 7 4 15
0 18 -9 3 -8 2 -13 -2 -10 -4 2 -8 -4 -8 -15 0 -21 12 -26 19 -6 3 6 4 -5 3
-26 -1 -21 1 -40 6 -43 5 -3 6 -10 3 -15 -4 -5 -1 -9 5 -9 6 0 9 -4 5 -9 -3
-5 0 -13 6 -17 7 -4 9 -3 5 4 -3 6 -2 13 3 16 10 7 9 -13 -2 -31 -4 -6 -2 -15
4 -19 8 -4 9 -3 5 4 -4 7 -3 12 2 12 13 0 23 -26 14 -35 -4 -3 -7 -14 -7 -22
0 -9 -6 -18 -12 -20 -7 -3 -13 1 -13 9 0 7 -10 19 -22 27 -23 14 -23 14 -4 -8
11 -11 16 -24 13 -28 -4 -3 -7 -3 -7 2 0 4 -7 2 -15 -5 -13 -11 -14 -10 -9 4
3 9 1 16 -6 16 -6 0 -9 -4 -6 -9 3 -5 -1 -11 -9 -15 -9 -3 -12 -12 -8 -22 5
-13 3 -15 -7 -9 -9 5 -11 4 -6 -4 4 -6 0 -14 -8 -17 -9 -3 -16 -10 -16 -16 0
-5 5 -6 10 -3 6 3 13 0 16 -8 2 -7 11 -14 19 -14 8 0 12 4 9 9 -6 10 10 11 19
1 4 -3 2 -12 -5 -20 -8 -10 -8 -12 4 -8 18 7 22 65 5 65 -8 0 -7 3 2 9 8 5 9
11 3 15 -6 3 -18 -4 -26 -16 -9 -12 -18 -20 -20 -17 -6 5 13 30 38 49 16 12
18 12 11 1 -5 -9 -4 -12 3 -7 7 4 10 -1 7 -14 -2 -12 2 -23 11 -27 11 -4 12
-8 3 -19 -7 -8 -9 -17 -5 -21 3 -3 6 0 6 7 0 7 3 10 7 6 4 -4 8 -15 8 -24 0
-9 6 -16 13 -14 8 1 12 -3 9 -10 -2 -7 -12 -12 -21 -10 -9 2 -19 -4 -22 -12
-3 -9 -10 -14 -14 -11 -5 3 -12 0 -16 -7 -4 -7 -4 -10 1 -6 4 4 15 2 23 -5 13
-10 14 -9 8 1 -7 11 -4 12 13 3 25 -14 28 -22 3 -15 -14 5 -14 3 2 -10 26 -21
12 -20 -21 2 -15 9 -24 12 -20 5 4 -6 1 -14 -5 -16 -7 -3 -4 -6 7 -6 11 -1 27
-6 35 -12 13 -9 13 -10 -1 -6 -9 3 -22 1 -30 -4 -8 -5 -9 -9 -3 -9 6 0 10 -11
9 -25 -2 -14 1 -23 5 -20 5 3 12 0 16 -6 5 -8 9 -8 14 2 5 7 19 14 32 15 13 2
17 0 11 -2 -7 -3 -16 -6 -20 -6 -10 -1 -32 -30 -33 -42 0 -5 7 -3 15 4 18 15
20 0 3 -19 -11 -11 -10 -13 3 -8 9 3 23 0 30 -6 11 -10 11 -9 1 5 -10 12 -10
18 -1 24 8 4 9 3 5 -5 -6 -8 0 -10 21 -6 24 4 25 4 8 -5 -20 -10 -19 -10 1 -7
12 3 29 0 38 -5 12 -7 16 -6 14 4 -2 7 3 12 11 10 12 -3 12 0 2 12 -10 12 -9
14 10 9 17 -5 20 -3 14 7 -5 9 -4 11 4 6 9 -6 9 -11 1 -21 -8 -10 -4 -12 20
-9 19 2 30 -1 30 -9 0 -8 4 -7 10 3 5 8 10 11 10 7 0 -4 9 -3 20 3 14 8 20 8
20 0 0 -6 5 -8 12 -4 7 4 8 3 4 -5 -4 -6 -12 -9 -17 -6 -5 4 -17 1 -26 -5 -15
-9 -14 -10 7 -4 23 6 24 6 10 -11 -14 -18 -14 -18 13 0 15 10 31 14 35 10 4
-4 1 -10 -5 -12 -20 -7 -15 -22 5 -18 10 2 25 -1 33 -6 12 -7 12 -9 0 -9 -8 0
-11 -3 -8 -6 4 -4 13 -1 22 6 12 10 15 10 15 -3 0 -8 7 -18 16 -21 13 -5 14
-4 6 7 -21 25 46 12 75 -14 14 -13 23 -18 18 -10 -6 11 -3 13 13 9 15 -4 19
-2 15 8 -3 8 -10 11 -16 7 -6 -3 -7 -1 -3 5 9 15 12 15 29 -3 13 -13 18 -12
39 6 22 19 22 20 1 10 -16 -8 -24 -8 -29 1 -4 6 -3 8 4 4 6 -3 20 3 30 15 12
12 19 15 19 7 -1 -7 3 -14 8 -14 6 -1 9 2 7 7 -3 13 12 11 28 -4 8 -6 6 -2 -5
11 -18 22 -18 23 0 16 10 -4 16 -3 13 2 -4 5 8 10 25 11 18 0 26 -1 20 -4 -7
-2 -13 -9 -13 -15 0 -7 5 -6 14 2 8 6 12 18 10 25 -3 8 -1 22 5 32 10 16 10
15 8 -6 -1 -16 4 -25 16 -26 9 -2 15 1 11 6 -3 5 -11 6 -17 3 -7 -4 -8 -3 -4
1 20 22 43 11 38 -17 0 -5 3 -8 9 -8 13 0 13 16 0 41 -7 13 -7 19 0 19 5 0 10
-7 10 -16 0 -9 5 -12 12 -8 7 4 8 3 4 -4 -4 -7 -2 -12 3 -12 6 0 11 5 11 12 0
6 3 8 6 5 4 -4 1 -13 -6 -22 -11 -13 -9 -15 11 -13 13 2 23 -2 22 -7 -1 -6 8
-12 20 -12 18 -2 19 0 7 8 -12 8 -9 9 10 7 16 -2 24 -9 22 -18 -2 -8 8 -2 22
13 14 15 29 27 33 27 5 0 14 9 21 20 8 14 9 19 1 18 -6 -2 -14 3 -17 11 -2 8
0 11 5 8 5 -3 10 -1 11 6 2 22 8 42 16 56 6 10 5 12 -2 7 -7 -4 -12 -2 -12 3
0 6 6 11 13 11 6 0 4 5 -6 11 -9 6 -15 15 -12 20 4 5 11 6 17 3 7 -4 8 -2 4 5
-6 9 -11 9 -22 0 -10 -8 -11 -15 -4 -24 7 -8 5 -12 -5 -12 -8 0 -12 4 -9 9 3
4 0 8 -6 8 -6 0 -10 -8 -8 -17 2 -10 8 -18 15 -18 6 0 15 -4 20 -9 4 -5 3 -6
-4 -2 -6 3 -15 1 -19 -5 -4 -7 -3 -9 4 -5 6 3 13 3 16 -2 2 -4 -4 -9 -15 -9
-17 -2 -24 8 -20 30 1 5 -4 7 -11 4 -7 -2 -12 -12 -10 -21 2 -9 -4 -19 -12
-22 -9 -3 -13 -10 -10 -15 3 -5 0 -9 -5 -9 -17 0 -13 18 6 29 10 5 15 13 11
17 -5 4 -3 13 3 21 9 9 8 13 0 13 -10 0 -15 -13 -12 -32 1 -8 -15 -12 -33 -9
-5 1 -6 -5 -3 -13 4 -9 1 -18 -5 -22 -7 -5 -8 -2 -3 6 6 10 4 12 -8 7 -9 -3
-19 -2 -22 3 -7 12 5 40 18 40 7 0 7 -4 -1 -12 -19 -19 -14 -33 6 -15 10 10
22 14 25 10 4 -3 7 -2 7 4 0 11 -22 23 -48 29 -8 1 -17 6 -20 10 -4 4 1 4 11
1 9 -4 17 -2 17 4 0 6 6 9 14 6 7 -3 19 0 25 6 6 6 11 7 11 3 0 -5 7 -3 15 4
21 18 19 35 -2 19 -15 -11 -16 -11 -6 1 14 15 46 23 38 9 -4 -5 2 -6 12 -3 10
3 3 -4 -16 -15 -18 -12 -31 -24 -28 -27 7 -8 55 17 61 32 6 16 -49 48 -64 39
-6 -3 -10 -1 -10 6 0 6 8 9 20 6 11 -3 18 -2 15 3 -3 4 2 11 12 14 19 8 56
-22 46 -37 -3 -6 -1 -7 6 -3 6 4 8 13 4 19 -4 7 -8 18 -9 25 -3 19 -14 28 -14
12 0 -9 -5 -7 -16 6 -8 10 -13 14 -10 7 4 -6 2 -14 -3 -17 -14 -9 -42 5 -34
17 4 6 1 7 -7 2 -10 -6 -9 -11 5 -21 16 -12 16 -13 -3 -11 -12 0 -18 7 -17 17
2 8 4 18 4 23 2 12 31 8 31 -5 0 -6 3 -9 6 -6 3 4 1 16 -6 27 -6 12 -7 21 -3
20 20 -3 27 2 13 12 -12 9 -12 10 3 5 12 -4 17 -2 14 6 -2 7 5 19 17 26 19 11
19 12 -9 7 -16 -3 -24 -2 -17 1 6 3 9 10 6 15 -3 6 0 16 6 24 7 8 9 15 5 15
-4 0 -2 7 5 15 6 8 9 18 6 23 -3 6 2 16 11 23 14 12 16 12 8 -1 -8 -13 -6 -13
8 -1 13 10 14 17 6 33 -7 12 -7 18 -1 14 5 -3 13 1 16 10 4 11 2 15 -8 11 -10
-4 -13 -1 -9 8 3 8 9 12 14 9 5 -3 9 2 9 10 0 9 5 16 12 16 6 0 8 3 5 6 -4 4
-12 2 -20 -4 -10 -8 -13 -6 -13 8 0 11 2 17 5 15 5 -6 30 27 31 40 0 6 -5 3
-10 -5 -5 -8 -10 -11 -10 -7 0 4 8 20 17 35 17 27 17 27 -2 12 -20 -14 -20
-14 -1 7 10 12 16 28 13 35 -2 7 3 22 12 32 15 18 15 18 -9 6 l-25 -13 22 24
c12 13 22 27 22 32 1 4 1 8 2 10 6 15 3 85 -3 81 -4 -3 -8 -2 -9 3 0 4 -2 18
-3 30 -2 15 2 19 12 15 10 -3 13 -1 8 6 -3 6 -2 13 3 17 16 9 9 43 -9 38 -9
-3 -6 3 8 15 22 20 28 33 15 31 -27 -4 -34 2 -19 16 15 15 12 50 -3 40 -4 -2
-8 2 -8 10 0 8 4 12 9 9 4 -3 8 -1 8 5 0 5 -6 12 -12 14 -8 3 -6 6 5 6 9 1 17
5 17 10 0 6 -9 8 -20 6 -11 -2 -18 0 -15 6 4 5 14 9 23 9 14 0 15 2 2 9 -8 6
-18 7 -24 4 -5 -4 -7 1 -3 11 6 14 3 17 -8 12 -9 -3 -18 1 -21 9 -5 11 -11 12
-25 4 -15 -7 -19 -7 -17 3 2 7 -4 13 -12 13 -25 1 -39 15 -34 33 5 16 5 16 -6
0 -11 -19 -44 -13 -33 6 3 6 1 6 -8 -1 -7 -7 -18 -13 -24 -13 -5 0 -3 5 5 11
12 9 11 10 -7 6 -15 -3 -23 0 -23 8 0 7 -9 15 -19 18 -14 3 -18 1 -14 -9 3 -8
10 -11 16 -7 6 4 7 1 2 -7 -10 -16 -54 37 -50 60 2 8 4 17 4 20 1 3 5 -1 10
-9 7 -10 9 -7 8 12 -1 14 -6 23 -10 20 -5 -3 -7 3 -5 13 2 12 -2 18 -10 16 -9
-2 -13 6 -11 25 2 16 -1 35 -6 43 -5 8 -10 21 -11 28 -2 8 -6 17 -10 20 -4 4
-4 -1 -1 -10 4 -12 1 -18 -9 -18 -8 0 -13 -4 -10 -8 3 -5 -1 -9 -9 -9 -9 0
-11 5 -7 11 4 6 7 18 6 26 -1 8 -2 21 -3 28 -1 8 -6 10 -13 6 -9 -5 -9 -2 1 9
16 20 2 23 -18 5 -11 -11 -12 -10 -6 1 6 11 4 13 -11 7 -10 -4 -15 -4 -11 0 4
4 1 14 -6 23 -10 14 -10 14 5 3 11 -9 18 -10 23 -2 4 6 3 9 -2 8 -4 -1 -19 4
-32 11 -13 7 -21 8 -17 3 3 -6 1 -14 -5 -18 -8 -4 -9 -3 -5 4 4 7 0 12 -11 13
-10 0 -13 3 -5 6 24 9 12 22 -13 13 -16 -6 -27 -6 -31 2 -4 7 -3 8 4 4 7 -4
12 -2 12 3 0 14 -17 14 -25 1 -3 -5 -12 -7 -20 -4 -8 4 -12 11 -8 18 4 7 1 7
-9 -1 -8 -7 -18 -10 -21 -6 -4 3 -14 0 -23 -8 -15 -12 -16 -11 -10 9 4 12 5
22 2 22 -3 0 -6 -5 -6 -11z m250 -135 c0 -8 -19 -13 -24 -6 -3 5 1 9 9 9 8 0
15 -2 15 -3z m59 -58 c9 -11 9 -16 -1 -22 -7 -4 -10 -4 -6 1 4 4 3 14 -3 22
-6 7 -9 13 -6 13 2 0 10 -6 16 -14z m-327 -40 c7 5 8 2 2 -7 -14 -23 -13 -39
2 -39 9 0 13 4 10 9 -4 5 3 7 14 4 11 -3 17 -10 13 -17 -4 -6 1 -4 12 4 17 14
17 13 10 -10 -7 -21 -6 -23 7 -13 8 7 18 10 21 6 13 -12 7 13 -5 27 -7 8 -4 7
8 -3 18 -15 22 -15 40 -2 16 13 16 14 2 9 -10 -3 -18 -2 -18 3 0 4 15 9 33 9
17 1 26 -1 20 -3 -7 -3 -13 -12 -13 -21 0 -15 2 -15 10 -2 8 13 11 13 22 1 7
-8 8 -11 2 -8 -15 9 -26 -31 -12 -40 7 -3 8 -1 4 5 -4 7 -2 12 4 12 7 0 10 -5
8 -11 -2 -6 -7 -10 -11 -10 -4 1 -17 1 -28 1 -18 0 -19 3 -9 15 16 20 -10 31
-38 16 -11 -6 -23 -7 -27 -3 -5 4 -5 -1 -1 -12 5 -14 2 -17 -9 -12 -8 3 -15 1
-15 -5 0 -6 -4 -8 -8 -5 -5 3 -9 -1 -9 -9 0 -10 4 -12 12 -5 6 5 16 5 25 -2
12 -8 12 -9 -2 -4 -10 3 -20 1 -23 -3 -7 -12 -75 -11 -75 1 0 5 4 7 8 4 5 -3
9 2 9 10 0 8 -6 13 -14 10 -7 -3 -13 -1 -13 4 0 6 6 10 13 11 6 0 3 5 -8 10
-17 8 -16 9 7 6 15 -2 33 0 40 5 10 7 9 8 -4 4 -10 -3 -20 -1 -23 5 -4 5 -12
6 -18 2 -8 -4 -8 -2 1 9 10 13 9 16 -8 21 -17 4 -20 2 -15 -16 6 -21 6 -21 -6
-2 -7 11 -17 23 -23 27 -6 4 -6 11 2 21 7 7 8 18 4 22 -4 5 -1 5 6 1 7 -4 12
-2 12 5 0 6 9 0 21 -15 11 -14 25 -23 31 -20z m358 -70 c0 -6 -7 -3 -14 6 -7
10 -17 14 -21 10 -5 -4 -5 -1 -1 6 6 10 11 10 22 1 8 -6 14 -17 14 -23z m-219
-10 c-10 -11 -8 -17 6 -25 16 -9 16 -10 -4 -8 -12 0 -20 4 -17 8 2 4 0 10 -6
14 -14 9 -3 25 17 25 12 0 13 -3 4 -14z m196 -16 c2 -11 -1 -20 -5 -20 -4 0
-8 11 -8 25 0 28 8 24 13 -5z m-66 -3 c-10 -9 -11 -8 -5 6 3 10 9 15 12 12 3
-3 0 -11 -7 -18z m-514 -24 c0 -8 -6 -9 -19 -2 -10 5 -18 11 -18 12 0 2 8 3
18 3 10 0 19 -6 19 -13z m453 1 c0 -8 -19 -13 -24 -6 -3 5 1 9 9 9 8 0 15 -2
15 -3z m-174 -51 c-4 -4 -28 -10 -48 -12 -5 -1 -8 -6 -8 -12 0 -8 4 -8 14 0
11 9 18 8 30 -4 18 -18 13 -35 -10 -35 -8 0 -13 -4 -10 -8 2 -4 -6 -8 -19 -8
-13 0 -21 4 -19 8 3 4 -1 8 -8 9 -10 0 -10 2 0 6 15 6 16 33 1 33 -5 0 -7 -4
-4 -10 3 -5 1 -10 -4 -10 -19 0 -12 22 9 27 11 3 20 8 20 12 0 3 14 7 31 7 16
1 28 0 25 -3z m42 -88 c-3 -3 -9 2 -12 12 -6 14 -5 15 5 6 7 -7 10 -15 7 -18z
m22 -9 c0 -2 -8 -10 -17 -17 -16 -13 -17 -12 -4 4 13 16 21 21 21 13z m257
-56 c0 -16 -4 -27 -9 -24 -10 6 -11 38 -1 47 9 10 10 10 10 -23z m-662 10 c-8
-14 8 -13 22 1 6 6 16 8 22 5 14 -9 14 -36 0 -36 -5 0 -8 -4 -4 -9 3 -5 1 -12
-4 -16 -6 -3 -8 4 -6 16 4 21 4 21 -14 3 -10 -10 -16 -23 -13 -28 3 -5 0 -6
-7 -2 -9 6 -9 11 0 22 6 8 9 17 5 21 -3 3 -6 1 -6 -6 0 -7 -4 -10 -9 -6 -6 3
-8 -4 -6 -16 5 -24 -20 -56 -30 -39 -3 5 -1 10 5 10 6 0 8 5 4 12 -4 6 -3 8 4
5 6 -5 8 0 5 13 -7 25 -18 26 -21 3 -6 -60 -9 -81 -16 -91 -4 -7 -2 -12 5 -12
7 0 4 -7 -7 -15 -11 -9 -13 -14 -5 -13 9 2 15 -7 16 -24 1 -21 -1 -25 -10 -18
-6 5 -15 7 -18 3 -4 -3 -7 -1 -7 6 0 7 6 11 13 8 8 -3 14 1 14 8 0 7 -6 11
-14 8 -7 -3 -13 2 -13 11 0 9 5 16 11 16 5 0 7 5 4 10 -4 6 -11 8 -16 5 -5 -3
-6 1 -2 10 5 13 7 14 14 3 7 -10 9 -9 9 5 0 9 -6 17 -12 17 -9 0 -8 4 2 10 13
8 13 11 1 19 -17 11 -4 34 15 27 8 -3 14 -1 14 4 0 6 -4 10 -10 10 -5 0 -10 5
-10 10 0 6 3 9 8 9 22 -4 62 2 61 9 -2 12 1 22 7 22 3 0 2 -4 -1 -10z m705 -9
c0 -4 -9 -7 -20 -8 -19 -2 -26 8 -14 20 7 7 34 -2 34 -12z m26 -7 c-4 -9 -2
-22 3 -28 6 -8 6 -17 -1 -26 -8 -12 -9 -12 -4 3 4 13 -1 19 -24 24 -16 3 -27
9 -24 14 3 5 10 7 15 4 5 -4 12 1 15 9 3 9 11 16 16 16 6 0 7 -7 4 -16z m34
-19 c-11 -13 -10 -14 4 -9 21 8 47 -13 39 -32 -3 -7 -10 -11 -15 -8 -6 4 -6 9
2 14 9 5 9 9 1 14 -6 4 -11 2 -11 -5 0 -7 -3 -9 -7 -6 -3 4 -13 1 -21 -6 -13
-10 -14 -9 -10 3 3 8 1 24 -5 34 -8 16 -6 18 7 13 9 -4 16 -1 16 5 0 6 3 8 6
5 4 -4 1 -13 -6 -22z m-440 -50 c-13 -15 -35 -11 -24 6 3 5 10 7 15 4 5 -4 9
-1 9 6 0 7 3 9 6 6 4 -4 1 -13 -6 -22z m102 6 c16 9 19 8 13 -2 -5 -7 -1 -17
10 -26 14 -9 15 -13 4 -13 -12 0 -12 -2 1 -11 12 -8 10 -9 -9 -4 -17 5 -21 4
-16 -5 6 -9 3 -9 -14 -1 -11 7 -21 9 -21 5 0 -3 -12 2 -27 12 -24 15 -26 15
-14 1 10 -13 10 -17 1 -17 -9 0 -9 -4 1 -17 13 -15 12 -15 -11 -3 -14 8 -36
15 -50 16 -13 0 -26 6 -28 13 -2 6 -9 8 -15 4 -7 -4 -6 1 2 10 16 20 9 21 -22
6 -19 -9 -18 -7 3 10 18 14 27 16 32 8 6 -9 8 -8 8 1 0 10 4 10 16 -2 11 -12
20 -13 33 -6 10 5 21 6 25 2 4 -3 4 1 0 11 -3 10 -1 17 6 17 6 0 9 -4 5 -9 -5
-10 21 -41 34 -41 5 0 14 6 20 13 8 10 7 14 -4 14 -8 0 -12 -4 -9 -9 3 -4 1
-8 -5 -8 -15 0 -22 16 -15 35 6 16 8 16 16 1 7 -13 13 -14 30 -5z m358 -12 c0
-5 -4 -9 -10 -9 -5 0 -10 7 -10 16 0 8 5 12 10 9 6 -3 10 -10 10 -16z m-305
-9 c3 -6 -1 -7 -9 -4 -18 7 -21 14 -7 14 6 0 13 -4 16 -10z m321 -57 c-1 -32
1 -65 5 -74 4 -8 3 -22 -2 -30 -5 -7 -9 -10 -9 -5 0 6 -7 1 -16 -10 -14 -18
-15 -18 -4 4 7 13 9 26 6 29 -3 3 -1 13 4 23 6 12 4 24 -7 41 -16 23 -16 23 0
10 22 -18 22 -3 0 23 -17 20 -17 20 0 7 12 -9 17 -10 17 -2 0 6 -7 14 -16 18
-13 5 -13 7 -2 14 23 15 25 10 24 -48z m-392 6 c3 -3 -4 -5 -14 -6 -11 -1 -22
2 -25 8 -6 9 30 7 39 -2z m556 1 c0 -5 -2 -10 -4 -10 -3 0 -8 5 -11 10 -3 6
-1 10 4 10 6 0 11 -4 11 -10z m-1020 -99 c0 -3 -8 -11 -18 -18 -15 -9 -19 -8
-19 3 0 7 5 10 10 7 6 -4 8 0 4 10 -4 11 -2 14 9 10 7 -3 14 -8 14 -12z m1005
-33 c-1 -18 -8 -33 -16 -36 -8 -2 -10 0 -4 5 6 4 10 17 9 28 0 19 4 35 10 35
1 0 2 -14 1 -32z m-1175 12 c0 -5 -5 -10 -11 -10 -5 0 -7 5 -4 10 3 6 8 10 11
10 2 0 4 -4 4 -10z m165 -17 c0 -10 -5 -26 -11 -35 -9 -16 -11 -16 -23 5 -13
20 -13 21 2 9 10 -9 17 -10 22 -2 3 5 1 10 -6 10 -8 0 -8 4 1 15 16 19 17 19
15 -2z m872 -15 c2 -15 -1 -18 -6 -10 -4 7 -16 10 -27 7 -12 -4 -10 -1 6 9 14
8 25 15 25 16 1 0 2 -10 2 -22z m-17 -28 c0 -5 -4 -10 -10 -10 -5 0 -10 5 -10
10 0 6 5 10 10 10 6 0 10 -4 10 -10z m-863 -52 c-3 -7 -5 -2 -5 12 0 14 2 19
5 13 2 -7 2 -19 0 -25z m869 7 c1 -8 -2 -15 -6 -15 -5 0 -8 9 -7 20 1 21 10
18 13 -5z m-283 -3 c15 -16 15 -19 2 -19 -8 0 -13 3 -10 5 3 3 0 11 -6 19 -17
20 -5 16 14 -5z m87 14 c0 -3 -4 -8 -10 -11 -5 -3 -10 -1 -10 4 0 6 5 11 10
11 6 0 10 -2 10 -4z m-325 -26 c3 -5 1 -10 -4 -10 -6 0 -11 5 -11 10 0 6 2 10
4 10 3 0 8 -4 11 -10z m300 0 c4 -6 -1 -7 -11 -3 -13 5 -15 3 -9 -7 5 -9 4
-11 -4 -6 -6 4 -9 12 -6 17 8 12 22 12 30 -1z m-424 -18 c-7 -2 -18 1 -23 6
-8 8 -4 9 13 5 13 -4 18 -8 10 -11z m629 -2 c0 -5 -4 -10 -10 -10 -5 0 -10 5
-10 10 0 6 5 10 10 10 6 0 10 -4 10 -10z m14 -29 c3 -5 -1 -11 -9 -15 -8 -3
-17 0 -21 6 -4 7 -3 8 4 4 7 -4 12 -2 12 3 0 13 7 14 14 2z m-834 -47 c0 -8
-19 -13 -24 -6 -3 5 1 9 9 9 8 0 15 -2 15 -3z m0 -44 c0 -5 -5 -10 -11 -10 -5
0 -7 5 -4 10 3 6 8 10 11 10 2 0 4 -4 4 -10z m475 -20 c3 -5 1 -10 -4 -10 -6
0 -11 5 -11 10 0 6 2 10 4 10 3 0 8 -4 11 -10z m-36 -13 c13 5 14 3 3 -8 -10
-11 -15 -10 -27 4 -8 9 -10 13 -4 8 6 -5 19 -7 28 -4z m-239 -6 c0 -6 -4 -12
-8 -15 -5 -3 -9 1 -9 9 0 8 4 15 9 15 4 0 8 -4 8 -9z m300 -1 c0 -5 -5 -10
-11 -10 -5 0 -7 5 -4 10 3 6 8 10 11 10 2 0 4 -4 4 -10z m-383 -15 c0 -8 -4
-12 -9 -9 -5 3 -6 10 -3 15 9 13 12 11 12 -6z m603 1 c0 -3 -4 -8 -10 -11 -5
-3 -10 -1 -10 4 0 6 5 11 10 11 6 0 10 -2 10 -4z m-505 -168 c5 4 5 2 1 -5 -3
-6 -2 -15 4 -18 7 -4 7 -11 2 -18 -5 -7 -8 -19 -7 -28 2 -8 -7 -21 -19 -28
-17 -11 -19 -11 -8 0 18 20 15 33 -5 18 -16 -12 -17 -12 -6 2 7 9 9 20 5 24
-4 5 -2 5 4 2 7 -4 18 1 25 10 12 14 12 16 -2 11 -9 -3 -22 -2 -30 4 -11 8
-10 9 4 4 20 -6 22 4 5 24 -11 12 -10 12 3 2 9 -6 20 -8 24 -4z m70 2 c-3 -5
-12 -10 -18 -10 -7 0 -6 4 3 10 19 12 23 12 15 0z m29 -25 c-4 -8 -8 -15 -10
-15 -2 0 -4 7 -4 15 0 8 4 15 10 15 5 0 7 -7 4 -15z m283 -22 c0 -9 -4 -10
-14 -2 -7 6 -13 12 -13 14 0 1 6 2 13 2 8 0 14 -6 14 -14z m-642 -32 c6 -1 3
-6 -5 -11 -8 -5 -24 -7 -35 -4 -11 3 -5 -4 13 -15 33 -21 43 -38 17 -27 -8 3
-14 2 -12 -2 1 -4 -2 -8 -8 -9 -5 -2 -10 2 -10 7 0 6 -4 14 -10 18 -5 4 -10
16 -11 27 -1 20 11 23 61 16z m5 -32 c0 -5 5 -7 10 -4 6 3 10 1 10 -4 0 -16
-16 -13 -30 4 -9 10 -9 15 -1 15 6 0 11 -5 11 -11z m256 -1 c-6 -26 -18 -48
-28 -48 -6 0 -5 6 2 15 10 12 10 15 -1 15 -8 0 -5 6 7 15 23 18 23 18 20 3z
m-231 -37 c3 -5 0 -13 -6 -17 -8 -4 -9 -3 -5 4 4 7 3 12 -3 12 -18 0 -22 -19
-4 -28 13 -8 10 -10 -15 -9 -38 2 -39 4 -10 28 24 21 34 23 43 10z m492 -26
c0 -8 -4 -12 -9 -9 -5 3 -6 10 -3 15 9 13 12 11 12 -6z m-17 -21 c0 -8 -19
-13 -24 -6 -3 5 1 9 9 9 8 0 15 -2 15 -3z m-503 -26 c-3 -8 -6 -5 -6 6 -1 11
2 17 5 13 3 -3 4 -12 1 -19z m-27 -8 c8 -5 12 -11 10 -14 -3 -2 -14 2 -24 10
-22 15 -10 19 14 4z m81 -27 c13 -13 4 -33 -17 -33 -8 0 -14 -4 -14 -10 0 -5
6 -7 14 -4 18 7 30 -12 15 -22 -7 -4 -9 -3 -5 4 4 7 -2 10 -14 9 -11 -1 -19
-6 -16 -12 2 -7 -5 -11 -17 -10 -12 1 -22 7 -21 13 3 33 4 34 19 22 11 -9 15
-9 15 -1 0 6 -7 14 -15 17 -8 4 -15 10 -15 16 0 5 5 6 12 2 7 -5 9 -2 6 7 -7
18 35 20 53 2z m706 -15 c2 -17 0 -19 -7 -8 -5 8 -6 18 -4 22 8 12 10 10 11
-14z m-587 -13 c0 -11 -29 -11 -33 -1 -4 10 1 12 14 9 10 -3 19 -7 19 -8z
m567 -11 c0 -6 -11 -9 -24 -6 -33 6 -36 17 -4 17 15 0 28 -5 28 -11z m-657 -4
c0 -5 -2 -10 -4 -10 -3 0 -8 5 -11 10 -3 6 -1 10 4 10 6 0 11 -4 11 -10z
m-122 -37 c-4 -21 -23 -16 -24 6 -1 13 4 17 13 14 8 -3 13 -12 11 -20z m207
17 c-3 -5 -12 -10 -18 -10 -7 0 -6 4 3 10 19 12 23 12 15 0z m46 -13 c-10 -9
-11 -8 -5 6 3 10 9 15 12 12 3 -3 0 -11 -7 -18z m-127 -5 c2 -4 -4 -8 -14 -8
-10 0 -16 4 -14 8 7 10 21 10 28 0z m91 -2 c-3 -5 -12 -10 -18 -10 -7 0 -6 4
3 10 19 12 23 12 15 0z m160 1 c3 -5 2 -12 -3 -15 -5 -3 -9 1 -9 9 0 17 3 19
12 6z m385 -1 c0 -5 -5 -10 -11 -10 -5 0 -7 5 -4 10 3 6 8 10 11 10 2 0 4 -4
4 -10z m56 -9 c1 -6 0 -7 -2 -2 -3 6 -12 7 -20 4 -8 -3 -14 -1 -14 5 0 14 33
8 36 -7z m150 12 c-8 -8 -56 -11 -51 -3 3 4 16 8 30 8 14 0 24 -3 21 -5z
m-519 -19 c-3 -3 -12 -4 -19 -1 -8 3 -5 6 6 6 11 1 17 -2 13 -5z m165 -5 c2
-2 1 -3 -1 -1 -2 1 -14 -6 -25 -15 -15 -14 -18 -14 -8 -2 6 9 9 18 6 22 -3 3
1 4 10 3 8 -1 17 -4 18 -7z m-515 -21 c2 -17 0 -19 -7 -8 -5 8 -6 18 -4 22 8
12 10 10 11 -14z m384 5 c13 -16 12 -17 -3 -4 -10 7 -18 15 -18 17 0 8 8 3 21
-13z m-416 -3 c-3 -5 -12 -10 -18 -10 -7 0 -6 4 3 10 19 12 23 12 15 0z m166
1 c-8 -5 -10 -14 -6 -22 6 -11 5 -11 -5 -2 -14 12 -6 33 13 33 8 0 7 -3 -2 -9z
m169 0 c0 -6 -4 -12 -8 -15 -5 -3 -9 1 -9 9 0 8 4 15 9 15 4 0 8 -4 8 -9z
m500 -3 c0 -6 -3 -8 -7 -5 -3 4 -13 1 -22 -6 -14 -11 -14 -10 -2 6 15 20 31
22 31 5z m59 -14 c-6 -8 -15 -12 -19 -9 -4 3 -10 -2 -14 -10 -3 -8 -10 -15
-16 -15 -5 0 -2 9 7 19 9 11 21 17 26 14 6 -4 8 0 4 10 -4 11 -2 14 9 10 11
-4 12 -9 3 -19z m-848 -17 c-10 -9 -11 -8 -5 6 3 10 9 15 12 12 3 -3 0 -11 -7
-18z m446 8 c0 -8 -4 -12 -9 -9 -5 3 -6 10 -3 15 9 13 12 11 12 -6z m34 -9 c5
3 9 0 9 -6 0 -15 -23 -7 -26 8 -1 7 0 8 3 2 2 -5 9 -8 14 -4z m269 -8 c0 -6
-6 -5 -15 2 -8 7 -15 14 -15 16 0 2 7 1 15 -2 8 -4 15 -11 15 -16z m-380 3 c0
-6 -4 -12 -8 -15 -5 -3 -9 1 -9 9 0 8 4 15 9 15 4 0 8 -4 8 -9z m-149 -34
c-10 -9 -11 -8 -5 6 3 10 9 15 12 12 3 -3 0 -11 -7 -18z"/>
<path d="M890 1695 c-7 -8 -11 -15 -9 -16 2 0 17 -3 34 -5 29 -5 29 -5 11 15
-23 25 -21 25 -36 6z m24 -3 c3 -5 -1 -9 -9 -9 -8 0 -12 4 -9 9 3 4 7 8 9 8 2
0 6 -4 9 -8z"/>
<path d="M950 1469 c0 -5 -4 -8 -9 -4 -5 3 -12 1 -15 -4 -11 -16 11 -22 24 -6
7 8 17 12 23 8 6 -3 7 -1 3 5 -9 15 -26 16 -26 1z"/>
<path d="M666 1362 c-3 -5 1 -9 9 -9 8 0 15 4 15 9 0 4 -4 8 -9 8 -6 0 -12 -4
-15 -8z"/>
<path d="M916 1261 c-4 -5 -1 -13 6 -17 19 -12 69 -14 62 -3 -3 6 -11 8 -17 6
-7 -2 -19 2 -29 10 -10 9 -18 11 -22 4z"/>
<path d="M1067 1256 c-4 -10 -1 -13 8 -9 8 3 12 9 9 14 -7 12 -11 11 -17 -5z"/>
<path d="M583 355 c-8 -9 -9 -16 -3 -20 6 -3 10 -1 10 4 0 6 3 10 8 9 4 -2 8
1 10 7 5 15 -12 16 -25 0z"/>
<path d="M550 299 c0 -5 5 -7 10 -4 6 3 10 8 10 11 0 2 -4 4 -10 4 -5 0 -10
-5 -10 -11z"/>
<path d="M850 1886 c0 -2 7 -7 16 -10 8 -3 12 -2 9 4 -6 10 -25 14 -25 6z"/>
<path d="M1245 1800 c-3 -5 -1 -10 4 -10 6 0 11 5 11 10 0 6 -2 10 -4 10 -3 0
-8 -4 -11 -10z"/>
<path d="M1318 1573 c7 -3 16 -2 19 1 4 3 -2 6 -13 5 -11 0 -14 -3 -6 -6z"/>
<path d="M395 1420 c4 -6 11 -8 16 -5 14 9 11 15 -7 15 -8 0 -12 -5 -9 -10z"/>
<path d="M1596 1162 c-3 -5 1 -9 9 -9 8 0 12 4 9 9 -3 4 -7 8 -9 8 -2 0 -6 -4
-9 -8z"/>
<path d="M1593 945 c0 -8 4 -12 9 -9 5 3 6 10 3 15 -9 13 -12 11 -12 -6z"/>
<path d="M1504 692 c4 -7 2 -19 -4 -27 -7 -8 -9 -15 -5 -15 4 0 2 -6 -4 -14
-8 -10 -9 -16 -1 -21 11 -7 12 -5 14 23 1 9 5 23 10 30 5 8 3 18 -4 25 -10 9
-11 9 -6 -1z"/>
<path d="M510 596 c7 -7 13 -7 20 0 6 6 3 10 -10 10 -13 0 -16 -4 -10 -10z"/>
<path d="M1478 546 c-15 -21 -15 -24 1 -37 30 -24 40 -21 36 11 -2 17 1 30 6
30 6 0 7 -4 4 -10 -4 -6 1 -7 12 -4 13 4 14 3 5 -3 -17 -13 -24 -52 -12 -72 5
-9 10 -12 10 -7 0 5 8 2 18 -5 16 -13 16 -13 0 7 -21 24 -23 34 -7 34 5 0 8
-4 5 -9 -3 -5 1 -11 9 -15 8 -3 17 -1 20 5 4 5 11 7 16 3 6 -3 5 3 -2 15 -10
14 -15 17 -21 8 -7 -11 -12 -3 -9 15 0 4 -7 5 -17 2 -16 -5 -16 -5 0 9 16 12
14 15 -18 30 -19 9 -36 17 -37 17 -1 0 -10 -11 -19 -24z m27 -8 c-1 -13 -5
-22 -8 -20 -4 1 -11 2 -17 2 -5 0 -2 9 7 20 21 24 20 25 18 -2z"/>
<path d="M1475 440 c3 -5 8 -10 11 -10 2 0 4 5 4 10 0 6 -5 10 -11 10 -5 0 -7
-4 -4 -10z"/>
<path d="M1405 360 c-4 -6 -11 -7 -17 -4 -6 4 -8 2 -5 -4 7 -10 32 -11 42 0 4
3 2 9 -4 12 -5 4 -12 2 -16 -4z"/>
<path d="M496 223 c-6 -14 -5 -15 5 -6 7 7 10 15 7 18 -3 3 -9 -2 -12 -12z"/>
<path d="M950 119 c0 -5 5 -7 10 -4 6 3 10 8 10 11 0 2 -4 4 -10 4 -5 0 -10
-5 -10 -11z"/>
<path d="M970 105 c-11 -13 -10 -14 4 -9 9 3 16 10 16 15 0 13 -6 11 -20 -6z"/>
</g>
</svg>
