<svg xmlns="http://www.w3.org/2000/svg" width="83" height="20" viewBox="0 0 83 20">
  <g fill="none" fill-rule="evenodd">
    <path fill="#009EE3" d="M7.16956522,4.68550725 L12.784058,4.68550725 C15.7985507,4.68550725 16.9333333,6.2115942 16.757971,8.45362319 C16.4681159,12.1550725 14.2304348,14.2028986 11.2623188,14.2028986 L9.76376812,14.2028986 C9.35652174,14.2028986 9.0826087,14.4724638 8.97246377,15.2028986 L8.33623188,19.4492754 C8.2942029,19.7246377 8.14927536,19.884058 7.93188406,19.9057971 L4.40434783,19.9057971 C4.07246377,19.9057971 3.95507246,19.6521739 4.04202899,19.1028986 L6.19275362,5.48985507 C6.27681159,4.94492754 6.57536232,4.68550725 7.16956522,4.68550725 Z"/>
    <path fill="#113984" d="M31.5449275,4.43333333 C33.4391304,4.43333333 35.1869565,5.46086957 34.9478261,8.02173913 C34.657971,11.0652174 33.0275362,12.7492754 30.4550725,12.7565217 L28.2072464,12.7565217 C27.884058,12.7565217 27.7275362,13.0202899 27.6434783,13.5608696 L27.2086957,16.3246377 C27.1434783,16.742029 26.9289855,16.9478261 26.6130435,16.9478261 L24.5217391,16.9478261 C24.1884058,16.9478261 24.0724638,16.7347826 24.1463768,16.257971 L25.8724638,5.18115942 C25.957971,4.63623188 26.1623188,4.43333333 26.5347826,4.43333333 L31.5405797,4.43333333 L31.5449275,4.43333333 Z M28.1391304,10.3637681 L29.842029,10.3637681 C30.9072464,10.3231884 31.6144928,9.58550725 31.6855072,8.25507246 C31.7289855,7.43333333 31.173913,6.84492754 30.2913043,6.84925143 L28.6884058,6.85652174 L28.1391304,10.3637681 L28.1391304,10.3637681 Z M40.6333333,16.1 C40.8246377,15.926087 41.0188406,15.8362319 40.9913043,16.0507246 L40.9231884,16.5637681 C40.8884058,16.8318841 40.9942029,16.973913 41.2434783,16.973913 L43.1014493,16.973913 C43.4144928,16.973913 43.5666667,16.8478261 43.6434783,16.3637681 L44.7884058,9.17826087 C44.8463768,8.8173913 44.757971,8.64057971 44.484058,8.64057971 L42.4405797,8.64057971 C42.2565217,8.64057971 42.1666667,8.74347826 42.1188406,9.02463768 L42.0434783,9.46666667 C42.0043478,9.69710145 41.8985507,9.73768116 41.8,9.5057971 C41.4536232,8.68550725 40.5695652,8.3173913 39.3362319,8.34637681 C36.4710145,8.4057971 34.5391304,10.5811594 34.3318841,13.3695652 C34.1724638,15.526087 35.7173913,17.2202899 37.7550725,17.2202899 C39.2333333,17.2202899 39.8942029,16.7855072 40.6391304,16.1043478 L40.6391304,16.1043478 L40.6333333,16.1 Z M39.0768116,14.9942029 C37.8434783,14.9942029 36.984058,14.0101449 37.1623188,12.8043478 C37.3405797,11.5985507 38.4942029,10.6144928 39.7275362,10.6144928 C40.9608696,10.6144928 41.8202899,11.5985507 41.642029,12.8043478 C41.4637681,14.0101449 40.3115942,14.9942029 39.0768116,14.9942029 L39.0768116,14.9942029 Z M48.4246377,8.6173913 L46.5405797,8.6173913 C46.1521739,8.6173913 45.9942029,8.90724638 46.1173913,9.26376812 L48.4565217,16.1130435 L46.1623188,19.3724638 C45.9695652,19.6449275 46.1188406,19.8927536 46.3898551,19.8927536 L48.5072464,19.8927536 C48.7592664,19.9218921 49.0051019,19.8012402 49.1362319,19.584058 L56.3304348,9.26521739 C56.5521739,8.94782609 56.4478261,8.61449275 56.084058,8.61449275 L54.0797101,8.61449275 C53.7362319,8.61449275 53.5985507,8.75072464 53.4014493,9.03623188 L50.4014493,13.384058 L49.0608696,9.02608696 C48.9826087,8.76231884 48.7869565,8.6173913 48.426087,8.6173913 L48.4246377,8.6173913 Z"/>
    <path fill="#009EE3" d="M63.8144928,4.43333333 C65.7086957,4.43333333 67.4565217,5.46086957 67.2173913,8.02173913 C66.9275362,11.0652174 65.2971014,12.7492754 62.7246377,12.7565217 L60.4782609,12.7565217 C60.1550725,12.7565217 59.9985507,13.0202899 59.9144928,13.5608696 L59.4797101,16.3246377 C59.4144928,16.742029 59.2,16.9478261 58.884058,16.9478261 L56.7927536,16.9478261 C56.4594203,16.9478261 56.3434783,16.7347826 56.4173913,16.257971 L58.1463768,5.17826087 C58.2318841,4.63333333 58.4362319,4.43043478 58.8086957,4.43043478 L63.8144928,4.43043478 L63.8144928,4.43333333 Z M60.4086957,10.3637681 L62.1115942,10.3637681 C63.1768116,10.3231884 63.884058,9.58550725 63.9550725,8.25507246 C63.9985507,7.43333333 63.4434783,6.84492754 62.5608696,6.84925143 L60.957971,6.85652174 L60.4086957,10.3637681 L60.4086957,10.3637681 L60.4086957,10.3637681 Z M72.9028986,16.1 C73.0942029,15.926087 73.2884058,15.8362319 73.2608696,16.0507246 L73.1927536,16.5637681 C73.157971,16.8318841 73.2637681,16.973913 73.5130435,16.973913 L75.3710145,16.973913 C75.684058,16.973913 75.8362319,16.8478261 75.9130435,16.3637681 L77.057971,9.17826087 C77.115942,8.8173913 77.0275362,8.64057971 76.7536232,8.64057971 L74.7130435,8.64057971 C74.5289855,8.64057971 74.4391304,8.74347826 74.3913043,9.02463768 L74.315942,9.46666667 C74.2768116,9.69710145 74.1710145,9.73768116 74.0724638,9.5057971 C73.726087,8.68550725 72.842029,8.3173913 71.6086957,8.34637681 C68.7434783,8.4057971 66.8115942,10.5811594 66.6043478,13.3695652 C66.4449275,15.526087 67.9898551,17.2202899 70.0275362,17.2202899 C71.5057971,17.2202899 72.1666667,16.7855072 72.9115942,16.1043478 L72.9115942,16.1043478 L72.9028986,16.1 Z M71.3478261,14.9942029 C70.1144928,14.9942029 69.2550725,14.0101449 69.4333333,12.8043478 C69.6115942,11.5985507 70.7652174,10.6144928 71.9985507,10.6144928 C73.2318841,10.6144928 74.0913043,11.5985507 73.9130435,12.8043478 C73.7347826,14.0101449 72.5811594,14.9942029 71.3478261,14.9942029 L71.3478261,14.9942029 Z M79.9173913,16.9855072 L77.7724638,16.9855072 C77.6969256,16.9888862 77.6238193,16.9583848 77.5730817,16.9023212 C77.5223441,16.8462576 77.4992674,16.7704794 77.5101449,16.6956522 L79.3942029,4.75942029 C79.43124,4.59168791 79.5789637,4.47158735 79.7507246,4.46956522 L81.8956522,4.46956522 C81.9711903,4.46618626 82.0442967,4.49668765 82.0950343,4.55275125 C82.1457718,4.60881485 82.1688485,4.68459311 82.157971,4.75942029 L80.273913,16.6956522 C80.2380447,16.8645349 80.0900253,16.9860792 79.9173913,16.9884058 L79.9173913,16.9855072 Z"/>
    <path fill="#113984" d="M3.65797101,0 L9.27826087,0 C10.8608696,0 12.7391304,0.0507246377 13.9942029,1.15942029 C14.8333333,1.9 15.273913,3.07826087 15.1724638,4.34782609 C14.8275362,8.63913043 12.2608696,11.0434783 8.8173913,11.0434783 L6.04637681,11.0434783 C5.57391304,11.0434783 5.26231884,11.3565217 5.12898551,12.2028986 L4.35507246,17.1304348 C4.30434783,17.4492754 4.16666667,17.6376812 3.92028986,17.6608696 L0.452173913,17.6608696 C0.068115942,17.6608696 -0.068115942,17.3710145 0.031884058,16.7304348 L2.52463768,0.936231884 C2.62463768,0.301449275 2.97391304,0 3.65797101,0 Z"/>
    <path fill="#172C70" d="M5.21014493,11.7028986 L6.19130435,5.48985507 C6.27681159,4.94492754 6.57536232,4.68405797 7.16956522,4.68405797 L12.784058,4.68405797 C13.7130435,4.68405797 14.4652174,4.82898551 15.0536232,5.09710145 C14.4898551,8.9173913 12.0188406,11.0391304 8.78405797,11.0391304 L6.0173913,11.0391304 C5.64637681,11.0405797 5.37391304,11.226087 5.21014493,11.7028986 Z"/>
  </g>
</svg>
