<?xml version="1.0" encoding="UTF-8"?> <!-- Generator: Adobe Illustrator 16.0.0, SVG Export Plug-In . SVG Version: 6.00 Build 0) --> <svg xmlns="http://www.w3.org/2000/svg" xmlns:xlink="http://www.w3.org/1999/xlink" id="Layer_1" x="0px" y="0px" width="16.352px" height="15.03px" viewBox="-149.947 550.266 16.352 15.03" xml:space="preserve"> <path d="M-138.876,560.091c0.797-1.058,1.229-2.348,1.229-3.675c0-3.391-2.761-6.15-6.15-6.15c-3.39,0-6.15,2.76-6.15,6.15 c0,3.39,2.76,6.149,6.15,6.149c1.337,0,2.577-0.438,3.592-1.172l3.967,3.902l2.642-0.008L-138.876,560.091z M-143.807,560.926 c-2.483-0.005-4.495-2.017-4.5-4.5c0-2.479,2.012-4.5,4.5-4.5c2.488,0,4.5,2.021,4.5,4.5 C-139.298,558.904-141.319,560.926-143.807,560.926z"></path> </svg> 