<?xml version="1.0" encoding="UTF-8"?> <!-- Generator: Adobe Illustrator 16.0.0, SVG Export Plug-In . SVG Version: 6.00 Build 0) --> <svg xmlns="http://www.w3.org/2000/svg" xmlns:xlink="http://www.w3.org/1999/xlink" id="Layer_1" x="0px" y="0px" width="13.108px" height="14.999px" viewBox="-148.753 575.393 13.108 14.999" xml:space="preserve"> <g> <path d="M-140.266,582.008c-0.4,0.431-0.907,0.705-1.506,0.705c-0.64,0-1.203-0.341-1.631-0.851 c-0.481-0.572-0.79-1.358-0.844-2.115c-0.048-0.672,0.185-1.32,0.657-1.829c0.48-0.516,1.143-0.811,1.818-0.811 c0.703,0,1.416,0.327,1.903,0.871c0.441,0.497,0.646,1.111,0.575,1.733C-139.392,580.566-139.73,581.429-140.266,582.008z M-141.884,588.677c-2.53,0-5.148,0-5.148,0l0.002,0.002c0.163-2.021,1.356-4.093,3.217-4.897c0.587,0.402,1.276,0.646,2.041,0.646 c0.65,0,1.235-0.165,1.75-0.454c0.449,0.249,0.861,0.576,1.223,0.968c-1.484,0.782-2.611,2.126-3.086,3.735 M-140.382,590.391 c0-0.62,0.126-1.211,0.354-1.75c0.647-1.528,2.117-2.63,3.856-2.741l-0.001-0.003c-0.245-0.568-0.549-1.093-0.905-1.565 c-0.46-0.612-1.005-1.137-1.615-1.552h0.001c0.606-0.817,0.986-1.848,1.102-2.874c0.126-1.112-0.229-2.202-1-3.066 c-0.809-0.904-1.997-1.446-3.182-1.446c-1.149,0-2.269,0.495-3.073,1.358c-0.799,0.858-1.194,1.967-1.111,3.118 c0.064,0.907,0.384,1.845,0.904,2.63l0.001,0.001c-2.02,1.138-3.484,3.401-3.69,6.067c-0.003,0.038-0.005,0.073-0.008,0.109h-0.004 v1.715h6.622L-140.382,590.391z"></path> <polygon points="-136.424,590.392 -137.645,590.392 -137.645,589.573 -138.424,589.573 -138.424,588.366 -137.645,588.366 -137.645,587.556 -136.424,587.556 -136.424,588.366 -135.645,588.366 -135.645,589.573 -136.424,589.573 "></polygon> </g> </svg> 