<?xml version="1.0" encoding="UTF-8"?> <!-- Generator: Adobe Illustrator 16.0.0, SVG Export Plug-In . SVG Version: 6.00 Build 0) --> <svg xmlns="http://www.w3.org/2000/svg" xmlns:xlink="http://www.w3.org/1999/xlink" id="Layer_1" x="0px" y="0px" width="13.242px" height="14.999px" viewBox="-152.186 550.281 13.242 14.999" xml:space="preserve"> <path d="M-143.698,556.896c-0.4,0.431-0.907,0.705-1.506,0.705c-0.64,0-1.203-0.341-1.631-0.851 c-0.481-0.572-0.79-1.358-0.844-2.115c-0.048-0.672,0.185-1.32,0.657-1.829c0.48-0.516,1.143-0.811,1.818-0.811 c0.703,0,1.416,0.327,1.903,0.871c0.441,0.497,0.646,1.111,0.575,1.733C-142.824,555.455-143.163,556.317-143.698,556.896z M-150.462,563.567c0.163-2.021,1.356-4.093,3.217-4.897c0.587,0.402,1.276,0.646,2.041,0.646c0.65,0,1.235-0.165,1.75-0.454 c1.523,0.844,2.617,2.59,2.791,4.703c-0.001,0-9.801,0-9.801,0L-150.462,563.567z M-152.186,563.565v1.715h13.242v-1.715 l-0.002,0.002c-0.002-0.027-0.004-0.051-0.006-0.078c-0.188-2.507-1.411-4.621-3.175-5.821h0.001 c0.606-0.817,0.986-1.848,1.102-2.874c0.126-1.112-0.229-2.202-1-3.066c-0.809-0.904-1.997-1.446-3.182-1.446 c-1.149,0-2.269,0.495-3.073,1.358c-0.799,0.858-1.194,1.967-1.111,3.118c0.064,0.907,0.384,1.845,0.904,2.63l0.001,0.001 c-2.02,1.138-3.484,3.401-3.69,6.067c-0.003,0.038-0.005,0.073-0.008,0.109"></path> </svg> 