<svg width="24" height="24" xmlns="http://www.w3.org/2000/svg"><path d="M12.373 3.709c-4.349 0-6.542 3.195-6.542 5.86 0 1.614.596 3.05 1.874 3.584.21.089.398.003.458-.234.043-.165.143-.58.187-.754.062-.234.038-.317-.131-.522-.369-.446-.604-1.022-.604-1.84 0-2.37 1.73-4.493 4.507-4.493 2.458 0 3.808 1.54 3.808 3.596 0 2.704-1.168 4.988-2.902 4.988-.957 0-1.675-.812-1.445-1.807.275-1.189.808-2.471.808-3.329 0-.768-.402-1.408-1.234-1.408-.979 0-1.765 1.038-1.765 2.428 0 .886.292 1.485.292 1.485l-1.178 5.112c-.35 1.517-.052 3.377-.027 3.564.014.112.154.138.217.054.09-.121 1.256-1.596 1.653-3.07.112-.417.643-2.58.643-2.58.318.623 1.248 1.17 2.237 1.17 2.942 0 4.938-2.75 4.938-6.43.001-2.783-2.3-5.374-5.794-5.374z" fill="#12100B" fill-rule="evenodd"/></svg>