<svg xmlns="http://www.w3.org/2000/svg" width="24" height="24" viewBox="0 0 24 24">
    <g fill="none" fill-rule="evenodd">
        <path d="M0 0h24v24H0z"/>
        <path fill="#FFF" d="M12 1c6.075 0 11 4.925 11 11s-4.925 11-11 11S1 18.075 1 12 5.925 1 12 1zM7.293 7.293a1 1 0 0 0 0 1.414L10.585 12l-3.292 3.293a1 1 0 0 0-.083 1.32l.083.094a1 1 0 0 0 1.414 0L12 13.415l3.293 3.292a1 1 0 0 0 1.414-1.414L13.415 12l3.292-3.293a1 1 0 0 0 .083-1.32l-.083-.094a1 1 0 0 0-1.414 0L12 10.585 8.707 7.293a1 1 0 0 0-1.414 0z"/>
    </g>
</svg>
