<svg width="24" height="24" xmlns="http://www.w3.org/2000/svg"><path d="M20.75 7.314a6.834 6.834 0 01-1.945.525 3.354 3.354 0 001.488-1.845 6.83 6.83 0 01-2.15.81 3.405 3.405 0 00-2.47-1.054c-1.87 0-3.386 1.493-3.386 3.335 0 .261.03.516.088.76A9.66 9.66 0 015.399 6.36a3.282 3.282 0 00-.459 1.677c0 1.157.598 2.178 1.506 2.776a3.414 3.414 0 01-1.533-.417v.042c0 1.615 1.167 2.963 2.715 3.27a3.418 3.418 0 01-1.529.057 3.383 3.383 0 003.163 2.316 6.857 6.857 0 01-4.205 1.428c-.273 0-.542-.016-.807-.047a9.688 9.688 0 005.189 1.499c6.226 0 9.631-5.082 9.631-9.49 0-.144-.004-.288-.01-.43a6.857 6.857 0 001.69-1.727z" fill="#12100B" fill-rule="evenodd"/></svg>