<svg xmlns="http://www.w3.org/2000/svg" width="32" height="32" viewBox="0 0 32 32">
    <defs>
        <filter id="a" width="140.6%" height="140.6%" x="-20.3%" y="-20.3%" filterUnits="objectBoundingBox">
            <feOffset dy="1" in="SourceAlpha" result="shadowOffsetOuter1"/>
            <feGaussianBlur in="shadowOffsetOuter1" result="shadowBlurOuter1" stdDeviation="1"/>
            <feColorMatrix in="shadowBlurOuter1" result="shadowMatrixOuter1" values="0 0 0 0 0 0 0 0 0 0 0 0 0 0 0 0 0 0 0.5 0"/>
            <feMerge>
                <feMergeNode in="shadowMatrixOuter1"/>
                <feMergeNode in="SourceGraphic"/>
            </feMerge>
        </filter>
    </defs>
    <g fill="none" fill-rule="evenodd" filter="url(#a)">
        <path d="M0 0h32v32H0z"/>
        <path fill="#FFF" d="M4.514 15.143l10 6a1 1 0 0 1 0 1.714l-10 6A1 1 0 0 1 3 28V16a1 1 0 0 1 1.514-.857zM22 7a3 3 0 0 1 3 3v12a3 3 0 0 1-3 3h-3a1 1 0 0 1 0-2h3a1 1 0 0 0 1-1V10a1 1 0 0 0-1-1H6a1 1 0 0 0-1 1v1a1 1 0 0 1-2 0v-1a3 3 0 0 1 3-3h16zM10 3h16a3 3 0 0 1 2.995 2.824L29 6v12a1 1 0 0 1-1.993.117L27 18V6a1 1 0 0 0-.883-.993L26 5H10a1 1 0 0 1-.117-1.993L10 3h16-16z"/>
    </g>
</svg>
